<?xml version="1.0" encoding="UTF-8"?>
<svg width="48px" height="48px" viewBox="0 0 48 48" version="1.1" xmlns="http://www.w3.org/2000/svg">
    <g stroke="none" stroke-width="1" fill="none" fill-rule="evenodd">
        <path d="M24,24 C35.045695,24 44,32.954305 44,44 C44,55.045695 35.045695,64 24,64 C12.954305,64 4,55.045695 4,44 C4,32.954305 12.954305,24 24,24 Z M24,4 C34.045695,4 44,12.954305 44,24 C44,35.045695 34.045695,44 24,44 C13.954305,44 4,35.045695 4,24 C4,12.954305 13.954305,4 24,4 Z" fill="#506ef7"/>
        <path d="M24,24 C35.045695,24 44,32.954305 44,44 C44,55.045695 35.045695,64 24,64 C12.954305,64 4,55.045695 4,44 C4,32.954305 12.954305,24 24,24 Z M24,4 C34.045695,4 44,12.954305 44,24 C44,35.045695 34.045695,44 24,44 C13.954305,44 4,35.045695 4,24 C4,12.954305 13.954305,4 24,4 Z" fill="white" opacity="0.2"/>
    </g>
</svg>
